<?xml version="1.0" standalone="no"?>
<!DOCTYPE svg PUBLIC "-//W3C//DTD SVG 20010904//EN"
 "http://www.w3.org/TR/2001/REC-SVG-20010904/DTD/svg10.dtd">
<svg version="1.0" xmlns="http://www.w3.org/2000/svg"
 width="500.000000pt" height="500.000000pt" viewBox="0 0 500.000000 500.000000"
 preserveAspectRatio="xMidYMid meet">
<metadata>
Created by potrace 1.16, written by Peter Selinger 2001-2019
</metadata>
<g transform="translate(0.000000,500.000000) scale(0.100000,-0.100000)"
fill="#000000" stroke="none">
<path d="M2863 3490 c-47 -19 -58 -87 -18 -118 25 -20 25 -20 25 -196 l0 -176
-150 0 c-144 0 -150 -1 -150 -20 0 -20 5 -20 168 -18 l167 3 1 188 2 187 31
29 c17 16 31 36 31 45 0 28 -22 64 -47 75 -28 13 -30 13 -60 1z"/>
<path d="M3200 3323 c-51 -19 -64 -89 -25 -129 25 -25 25 -25 25 -224 l0 -200
-225 0 c-193 0 -225 -2 -225 -15 0 -13 34 -15 245 -15 l245 0 0 212 0 212 32
26 c53 44 35 120 -32 134 -14 3 -32 2 -40 -1z"/>
<path d="M2248 3130 c-9 -6 -24 -30 -34 -55 l-17 -45 -91 0 -92 0 -13 38 c-26
72 -45 77 -139 36 -70 -30 -78 -47 -52 -110 l19 -44 -62 -63 -62 -63 -48 18
c-61 23 -77 15 -105 -52 l-21 -50 188 0 c178 0 189 1 207 21 41 46 94 64 184
64 75 0 90 -3 132 -28 25 -15 52 -34 58 -42 10 -12 48 -15 201 -15 104 0 189
2 189 5 0 2 -12 29 -27 60 -30 62 -49 68 -117 40 l-36 -15 -61 61 -61 61 18
54 c22 66 19 70 -75 108 -36 14 -65 26 -65 26 -1 0 -9 -5 -18 -10z"/>
<path d="M3845 2676 c18 -43 22 -414 4 -464 -23 -65 47 -62 -1256 -63 -1099
-1 -1176 -2 -1143 -17 27 -13 74 -17 203 -20 152 -3 168 -5 162 -20 -25 -59
-10 -81 73 -112 74 -28 93 -22 118 37 l20 48 89 0 88 -1 21 -43 c31 -66 42
-69 120 -36 75 32 94 54 77 92 -6 13 -11 26 -11 28 0 3 173 5 385 5 l385 0 0
-144 c0 -142 0 -144 -25 -160 -51 -33 -20 -126 43 -126 35 0 58 16 71 49 15
35 4 62 -34 87 -25 16 -25 19 -25 155 l0 139 313 1 c351 0 372 3 399 59 15 30
18 64 17 230 0 230 -6 255 -66 288 l-42 23 14 -35z"/>
<path d="M1613 2529 c-66 -19 -95 -108 -58 -179 27 -52 144 -65 153 -17 3 15
-2 17 -36 11 -50 -8 -78 7 -87 46 -16 71 28 122 90 106 18 -5 27 -2 31 9 4 9
5 17 3 19 -12 9 -68 12 -96 5z"/>
<path d="M1740 2536 c0 -2 18 -35 40 -72 31 -54 40 -79 40 -116 0 -41 3 -48
20 -48 17 0 20 7 20 46 0 36 10 64 41 120 40 73 40 74 16 74 -19 0 -28 -10
-47 -50 -13 -27 -26 -50 -30 -50 -4 0 -17 23 -30 50 -18 39 -29 50 -47 50 -13
0 -23 -2 -23 -4z"/>
<path d="M1980 2419 c0 -109 2 -120 18 -117 14 3 18 18 22 92 l5 89 54 -92
c48 -82 57 -92 80 -89 l26 3 3 118 c2 111 2 117 -17 117 -19 0 -20 -8 -23 -92
l-3 -93 -54 93 c-48 82 -58 92 -83 92 l-28 0 0 -121z"/>
<path d="M2237 2526 c-8 -19 1 -26 34 -26 l28 0 3 -97 c3 -90 5 -98 23 -98 18
0 20 8 23 98 l3 97 29 0 c23 0 30 4 30 20 0 18 -7 20 -84 20 -63 0 -85 -4 -89
-14z"/>
<path d="M2510 2522 c-19 -9 -40 -28 -47 -42 -30 -60 -4 -151 49 -169 90 -32
157 12 158 102 0 60 -23 103 -63 117 -41 14 -57 13 -97 -8z m96 -36 c14 -11
19 -26 19 -66 0 -40 -5 -55 -19 -66 -26 -19 -65 -18 -88 3 -24 21 -25 99 -1
125 19 22 62 23 89 4z"/>
<path d="M2730 2420 c0 -113 1 -120 20 -120 18 0 20 8 22 93 l3 92 29 -50 c71
-123 80 -134 109 -135 l27 0 0 120 c0 113 -1 120 -20 120 -19 0 -20 -7 -20
-92 l0 -92 -44 72 c-25 39 -47 81 -51 92 -5 15 -15 20 -41 20 l-34 0 0 -120z"/>
<path d="M3162 2533 c-12 -3 -30 -16 -39 -29 -22 -34 -6 -65 49 -95 52 -29 61
-55 22 -65 -15 -4 -40 -2 -56 4 -26 9 -28 8 -28 -13 0 -19 7 -24 41 -29 109
-17 150 79 54 126 -35 17 -45 27 -45 46 0 23 2 24 44 19 34 -5 45 -3 50 9 3 8
0 16 -7 19 -28 8 -63 12 -85 8z"/>
<path d="M3373 2529 c-23 -7 -37 -20 -53 -54 -23 -48 -21 -89 6 -132 27 -42
144 -54 144 -14 0 13 -8 15 -43 13 -30 -3 -47 1 -56 12 -19 23 -24 87 -8 116
11 21 20 25 62 25 55 0 72 19 30 35 -30 12 -39 11 -82 -1z"/>
<path d="M3593 2528 c-12 -15 -83 -203 -83 -219 0 -22 44 -4 50 21 5 22 12 25
57 28 50 3 51 2 58 -28 5 -23 12 -30 31 -30 13 0 24 2 24 4 0 2 -18 54 -40
116 -22 62 -40 114 -40 116 0 10 -49 2 -57 -8z"/>
<path d="M2540 2025 c0 -12 26 -15 153 -17 l152 -3 3 -173 2 -174 -30 -28
c-17 -16 -30 -38 -30 -52 0 -32 29 -65 63 -73 21 -6 33 -1 57 23 16 17 30 37
30 46 0 27 -22 65 -42 71 -17 6 -18 20 -18 201 l0 194 -170 0 c-143 0 -170 -2
-170 -15z"/>
</g>
</svg>
